<svg width="800" height="800" viewBox="0 0 800 800" fill="none" xmlns="http://www.w3.org/2000/svg">
<g clip-path="url(#clip0_721_34)">
<path d="M400 0C179.063 0 0 179.063 0 400C0 620.937 179.063 800 400 800C620.937 800 800 620.937 800 400C800 179.063 620.937 0 400 0ZM414.219 222.031C428.906 204.219 453.906 190.625 475.313 189.062C478.906 213.438 468.906 237.188 455.781 254.063C441.719 272.188 417.5 286.094 394.062 285.312C390 262.031 400.938 238.125 414.219 222.031ZM545.938 531.094C529.062 556.719 505.312 588.75 475.781 589.062C449.531 589.375 442.813 572.031 407.344 572.188C371.875 572.344 364.375 589.375 338.125 589.062C308.594 588.75 286.094 559.844 269.219 534.219C222.031 462.344 217.031 378.125 246.25 333.281C266.875 301.406 299.531 282.812 330.312 282.812C361.562 282.812 381.094 300 407.031 300C432.031 300 447.344 282.812 483.438 282.812C510.781 282.812 539.688 297.656 560.312 323.438C492.812 360.469 503.75 456.875 572.031 482.656C562.5 503.281 557.969 512.656 545.938 531.094Z" fill="#B9BBBB"/>
</g>
<defs>
<clipPath id="clip0_721_34">
<rect width="800" height="800" fill="white"/>
</clipPath>
</defs>
</svg>
