<svg width="800" height="800" viewBox="0 0 800 800" fill="none" xmlns="http://www.w3.org/2000/svg">
<g clip-path="url(#clip0_724_9)">
<path fill-rule="evenodd" clip-rule="evenodd" d="M0 400C0 179.086 179.086 0 400 0C620.914 0 800 179.086 800 400C800 620.914 620.914 800 400 800C179.086 800 0 620.914 0 400ZM572.502 265.078C571.715 265.534 570.946 266.041 570.2 266.6L427.6 373.55L427.6 373.55C411.243 385.817 388.756 385.817 372.399 373.55L229.8 266.602C229.053 266.042 228.284 265.534 227.496 265.079C230.88 263.12 234.809 262 239 262H561C565.19 262 569.119 263.12 572.502 265.078ZM584 313.75L455.2 410.35L455.199 410.351C422.488 434.884 377.512 434.884 344.8 410.351L216 313.752V515C216 527.702 226.297 538 239 538H561C573.703 538 584 527.702 584 515V313.75ZM239 216C200.892 216 170 246.892 170 285V515C170 553.107 200.892 584 239 584H561C599.108 584 630 553.107 630 515V285C630 246.892 599.108 216 561 216H239Z" fill="#B9BBBB"/>
</g>
<defs>
<clipPath id="clip0_724_9">
<rect width="800" height="800" fill="white"/>
</clipPath>
</defs>
</svg>
