<svg width="1030" height="1009" viewBox="0 0 1030 1009" fill="none" xmlns="http://www.w3.org/2000/svg">
<g clip-path="url(#clip0_734_2)">
<path fill-rule="evenodd" clip-rule="evenodd" d="M513.466 0C229.532 0 0 231.224 0 517.281C0 745.941 147.069 939.497 351.093 1008C376.602 1013.15 385.945 996.872 385.945 983.177C385.945 971.185 385.104 930.08 385.104 887.25C242.271 918.087 212.527 825.587 212.527 825.587C189.573 765.637 155.562 750.229 155.562 750.229C108.812 718.541 158.967 718.541 158.967 718.541C210.824 721.967 238.035 771.638 238.035 771.638C283.933 850.423 357.893 828.162 387.648 814.457C391.894 781.055 405.505 757.933 419.956 745.089C306.036 733.097 186.178 688.566 186.178 489.87C186.178 433.346 206.568 387.101 238.876 351.135C233.778 338.292 215.922 285.184 243.984 214.103C243.984 214.103 287.338 200.398 385.094 267.201C426.946 255.878 470.108 250.118 513.466 250.069C556.82 250.069 601.016 256.071 641.827 267.201C739.593 200.398 782.947 214.103 782.947 214.103C811.009 285.184 793.142 338.292 788.045 351.135C821.204 387.101 840.753 433.346 840.753 489.87C840.753 688.566 720.895 732.235 606.123 745.089C624.832 761.359 640.975 792.186 640.975 841.006C640.975 910.373 640.134 966.045 640.134 983.167C640.134 996.872 649.489 1013.15 674.986 1008.01C879.01 939.486 1026.08 745.941 1026.08 517.281C1026.92 231.224 796.547 0 513.466 0Z" fill="#B9BBBB"/>
</g>
<defs>
<clipPath id="clip0_734_2">
<rect width="1030" height="1008.98" fill="white"/>
</clipPath>
</defs>
</svg>
