<svg width="800" height="800" viewBox="0 0 800 800" fill="none" xmlns="http://www.w3.org/2000/svg">
<g clip-path="url(#clip0_725_19)">
<path fill-rule="evenodd" clip-rule="evenodd" d="M400 0C179.086 0 0 179.086 0 400C0 620.914 179.086 800 400 800C620.914 800 800 620.914 800 400C800 179.086 620.914 0 400 0ZM399.828 399.443C407.565 399.443 414.997 398.152 421.965 395.825C472.579 404.137 499.062 441.334 499.062 486.472H399.828H300.593C300.593 441.334 327.081 404.137 377.691 395.825C384.658 398.152 392.091 399.443 399.828 399.443ZM399.828 383.362C429.83 383.362 454.142 359.037 454.142 329.04V313.632C454.142 283.635 429.83 259.317 399.828 259.317C369.827 259.317 345.515 283.635 345.515 313.632V329.04C345.515 359.037 369.827 383.362 399.828 383.362ZM265.933 120H533.703C585.51 120 627.656 162.155 627.656 213.952V543.266V557.675L617.483 567.858L515.514 669.827L505.322 680H490.912H265.933C214.147 680 172 637.864 172 586.068V213.952C172 162.155 214.147 120 265.933 120ZM540.211 543.265H592.871V213.952C592.871 181.277 566.38 154.785 533.703 154.785H265.933C233.268 154.785 206.786 181.277 206.786 213.952V586.068C206.786 618.724 233.268 645.215 265.933 645.215H490.911V592.563C490.911 565.34 512.996 543.265 540.211 543.265Z" fill="#B9BBBB"/>
</g>
<defs>
<clipPath id="clip0_725_19">
<rect width="800" height="800" fill="white"/>
</clipPath>
</defs>
</svg>
